<mxfile host="app.diagrams.net" modified="2024-04-26T17:49:05.077Z" agent="Mozilla/5.0 (Windows NT 10.0; Win64; x64) AppleWebKit/537.36 (KHTML, like Gecko) Chrome/121.0.0.0 Safari/537.36 OPR/107.0.0.0" version="24.2.8" etag="jx8lbJBCSCXQYtg9QxzY" type="github">
  <diagram name="Page-1" id="t15iYDiz9GMy2WmCvlFU">
    <mxGraphModel>
      <root>
        <mxCell id="0" />
        <mxCell id="1" parent="0" />
      </root>
    </mxGraphModel>
  </diagram>
</mxfile>
